#N canvas 214 23 1018 699 10;
#X obj 119 110 mrpeach/unpackOSC;
#X obj 119 84 mrpeach/udpreceive 57120;
#X obj 440 507 mrpeach/packOSC;
#X obj 439 531 mrpeach/udpsend 57120;
#X obj 119 134 route /connect /disconnect;
#X obj 116 160 symbol;
#X msg 109 199 /user \$1 page('welcome');
#X obj 444 439 loadbang;
#X obj 82 105 bng 15 250 50 0 empty empty empty 17 7 0 10 -262144 -1
-1;
#X obj 439 559 tgl 15 0 empty empty empty 17 7 0 10 -262144 -1 -1 1
1;
#X msg 442 468 connect 192.168.1.1 4445;
#N canvas 266 214 1104 851 sub1 0;
#X obj 139 115 tof/menubutton 124 25 empty empty 0 grey90 black grey95
black -1;
#X obj 581 147 prepend add;
#X obj 521 119 split_path;
#X obj 522 96 folder_list;
#X obj 108 123 bng 15 250 50 0 empty empty empty 17 7 0 10 -262144
-1 -1;
#X obj 580 40 getdir;
#X msg 573 66 symbol \$1/img/*;
#X obj 690 270 tof/menubutton 124 25 empty empty 0 grey90 black grey95
black -1;
#X obj 578 379 prepend add;
#X obj 518 351 split_path;
#X obj 519 328 folder_list;
#X obj 613 234 bng 15 250 50 0 empty empty empty 17 7 0 10 -262144
-1 -1;
#X obj 577 272 getdir;
#X msg 570 298 symbol \$1/sound/*;
#X symbolatom 109 267 30 0 0 0 - - -;
#X obj 265 537 colorpanel;
#X obj 110 231 bng 15 250 50 0 empty empty empty 17 7 0 10 -262144
-1 -1;
#X msg 637 326 clear;
#X obj 610 255 t b b b;
#X msg 600 332 symbol;
#X msg 625 125 symbol;
#X msg 668 106 clear;
#X obj 613 23 t b b b;
#X obj 262 581 unpack f f f;
#X obj 266 630 * 255;
#X obj 302 629 * 255;
#X obj 345 630 * 255;
#X obj 425 635 pack f f f;
#X msg 466 527 sendId('display'_'merci') \;;
#X msg 424 657 document.getElementById('display').style.backgroundColor='rgb(\$1_\$2_\$3)'
;
#X msg 394 581 document.getElementById('display').style.backgroundImage="url('../img/\$2')"
;
#X obj 141 173 tof/menubutton 124 25 empty empty 0 grey90 black grey95
black -1;
#X obj 693 554 prepend add;
#X obj 633 526 split_path;
#X obj 634 503 folder_list;
#X obj 114 172 bng 15 250 50 0 empty empty empty 17 7 0 10 -262144
-1 -1;
#X obj 692 447 getdir;
#X msg 737 532 symbol;
#X msg 780 513 clear;
#X obj 725 430 t b b b;
#X msg 685 473 symbol \$1/page/*;
#X msg 363 464 page('\$2');
#X obj 127 528 s2l;
#X msg 122 619 sendId('display'_'\$1');
#X text 268 120 img;
#X text 268 178 page;
#X text 142 233 color;
#X obj 380 796 outlet;
#X obj 382 742 prepend;
#X obj 809 327;
#X obj 109 300 tof/menubutton 124 25 empty empty 0 grey90 black grey95
black -1;
#X obj 874 412 prepend add;
#X obj 878 504 list split 1;
#X msg 449 727 /all;
#X obj 447 704 loadbang;
#X obj 864 389 cyclone/tosymbol;
#X obj 870 345 t b b;
#X msg 984 412 clear;
#X text 114 281 user;
#X obj 383 769 list trim;
#X obj 907 562 s2l;
#X msg 881 632 /user r\$2;
#X msg 759 369 /all \, /user 0 \, /user 1 \, /user 2 \, /user 3;
#X obj 129 568 l2s #;
#X obj 470 788 print;
#X msg 882 100 /all page('') \, /user r2 page('ii');
#X obj 808 85 t b b;
#X obj 808 55 delay 1000;
#X msg 753 32 stop;
#X obj 782 178 t b b;
#X obj 112 364 tof/menubutton 124 25 empty empty 0 grey90 black grey95
black -1;
#X obj 921 203 sel 0 1 2 3 4 5 6 7;
#X obj 915 184 list split 1;
#X msg 861 21 /all page('deambule');
#X obj 788 149 delay 180000;
#X obj 784 209 delay 180000;
#N canvas 448 23 928 777 scenar 0;
#X obj 79 5 inlet;
#X msg 506 138 /all page('') \, /user r2 page('ii');
#X obj 241 161 t b b;
#X msg 83 143 stop;
#X obj 217 251 t b b;
#X obj 68 34 list split 1;
#X obj 221 225 delay 180000;
#X obj 211 290 delay 180000;
#X obj 241 131 delay 1;
#X obj 204 353 delay 180000;
#X obj 212 318 t b b;
#X text 173 224 3mn;
#X text 157 296 6mn;
#X text 153 353 9mn;
#X obj 195 419 delay 180000;
#X obj 203 384 t b b;
#X obj 184 480 delay 180000;
#X obj 192 445 t b b;
#X text 145 414 12mn;
#X text 123 478 15mn;
#X obj 178 543 delay 180000;
#X obj 177 505 t b b;
#X text 128 545 18mn;
#X obj 168 599 delay 180000;
#X obj 176 564 t b b;
#X text 100 601 21 mn;
#X obj 403 682 outlet;
#X msg 334 508 /user r1 page('rapproche') \, /user r0 page('bisous')
\, /user r3 page('bisous') \, /user r2 page('rapproche');
#X msg 420 428 /all page('cooperer');
#X msg 338 553 /all page('espace');
#X msg 231 654 /all page('merci');
#X msg 335 605 /all page('sol');
#X msg 486 636 /all page('welcome');
#X obj 76 87 sel 0 1 2 3 4 5 6 7 8;
#X obj 72 63 t a b;
#X msg 348 199 /all page('espace');
#X msg 322 268 /user r0 page('shacker') \, /user r1 page('orientation')
\, /user r2 page('shacker') \, /user r3 page('orientation');
#X msg 320 352 /user r1 page('shacker') \, /user r0 page('orientation')
\, /user r3 page('shacker') \, /user r2 page('orientation');
#X connect 0 0 5 0;
#X connect 2 0 6 0;
#X connect 2 1 35 0;
#X connect 3 0 6 0;
#X connect 3 0 8 0;
#X connect 3 0 7 0;
#X connect 3 0 9 0;
#X connect 3 0 14 0;
#X connect 3 0 16 0;
#X connect 3 0 20 0;
#X connect 3 0 23 0;
#X connect 4 0 7 0;
#X connect 4 1 36 0;
#X connect 5 0 34 0;
#X connect 6 0 4 0;
#X connect 7 0 10 0;
#X connect 8 0 2 0;
#X connect 9 0 15 0;
#X connect 10 0 9 0;
#X connect 10 1 37 0;
#X connect 14 0 17 0;
#X connect 15 0 14 0;
#X connect 15 1 28 0;
#X connect 16 0 21 0;
#X connect 17 0 16 0;
#X connect 17 1 27 0;
#X connect 20 0 24 0;
#X connect 21 0 20 0;
#X connect 21 1 29 0;
#X connect 23 0 30 0;
#X connect 24 0 23 0;
#X connect 24 1 31 0;
#X connect 27 0 26 0;
#X connect 28 0 26 0;
#X connect 29 0 26 0;
#X connect 30 0 26 0;
#X connect 31 0 26 0;
#X connect 32 0 26 0;
#X connect 33 0 32 0;
#X connect 33 1 2 0;
#X connect 33 2 4 0;
#X connect 33 3 10 0;
#X connect 33 4 15 0;
#X connect 33 5 17 0;
#X connect 33 6 21 0;
#X connect 33 7 24 0;
#X connect 33 8 30 0;
#X connect 34 0 33 0;
#X connect 34 1 3 0;
#X connect 35 0 26 0;
#X connect 36 0 26 0;
#X connect 37 0 26 0;
#X restore 921 235 pd scenar;
#X obj 867 536 print;
#X obj 917 590 route symbol;
#X msg 864 51 clear \, add stop \, add deambule \, add rejoins1 \,
add rejoins2 \, add coopere \, add 12mn \, add deambule2 \, add sol
\, add merci;
#X obj 1021 18 loadbang;
#X text 128 344 scenario;
#X msg 219 704 o.disconnect();
#X connect 0 0 30 0;
#X connect 1 0 0 0;
#X connect 2 1 1 0;
#X connect 3 0 2 0;
#X connect 4 0 22 0;
#X connect 5 0 6 0;
#X connect 6 0 3 0;
#X connect 8 0 7 0;
#X connect 9 1 8 0;
#X connect 10 0 9 0;
#X connect 11 0 18 0;
#X connect 12 0 13 0;
#X connect 13 0 10 0;
#X connect 14 0 43 0;
#X connect 15 0 23 0;
#X connect 16 0 15 0;
#X connect 17 0 7 0;
#X connect 18 0 12 0;
#X connect 18 1 19 0;
#X connect 18 2 17 0;
#X connect 19 0 8 0;
#X connect 20 0 1 0;
#X connect 21 0 0 0;
#X connect 22 0 5 0;
#X connect 22 1 20 0;
#X connect 22 2 21 0;
#X connect 23 0 24 0;
#X connect 23 1 25 0;
#X connect 23 2 26 0;
#X connect 24 0 27 0;
#X connect 25 0 27 1;
#X connect 26 0 27 2;
#X connect 27 0 29 0;
#X connect 28 0 48 0;
#X connect 29 0 48 0;
#X connect 30 0 48 0;
#X connect 31 0 41 0;
#X connect 32 0 31 0;
#X connect 33 1 32 0;
#X connect 34 0 33 0;
#X connect 35 0 39 0;
#X connect 36 0 40 0;
#X connect 37 0 32 0;
#X connect 38 0 31 0;
#X connect 39 0 36 0;
#X connect 39 1 37 0;
#X connect 39 2 38 0;
#X connect 40 0 34 0;
#X connect 41 0 48 0;
#X connect 42 0 63 0;
#X connect 43 0 48 0;
#X connect 48 0 59 0;
#X connect 50 0 52 0;
#X connect 51 0 50 0;
#X connect 52 1 60 0;
#X connect 53 0 48 1;
#X connect 54 0 53 0;
#X connect 54 0 39 0;
#X connect 54 0 22 0;
#X connect 54 0 56 0;
#X connect 55 0 51 0;
#X connect 56 0 62 0;
#X connect 56 1 57 0;
#X connect 57 0 50 0;
#X connect 59 0 47 0;
#X connect 60 0 78 0;
#X connect 61 0 48 1;
#X connect 62 0 55 0;
#X connect 63 0 43 0;
#X connect 66 0 74 0;
#X connect 66 1 73 0;
#X connect 67 0 66 0;
#X connect 68 0 67 0;
#X connect 68 0 74 0;
#X connect 70 0 76 0;
#X connect 71 0 68 0;
#X connect 71 1 67 0;
#X connect 71 2 74 0;
#X connect 72 0 71 0;
#X connect 74 0 69 0;
#X connect 76 0 59 0;
#X connect 78 0 53 0;
#X connect 78 1 61 0;
#X connect 79 0 70 0;
#X connect 80 0 79 0;
#X connect 82 0 48 0;
#X coords 0 -1 1 1 200 300 2 100 100;
#X restore 393 108 pd sub1;
#X connect 0 0 4 0;
#X connect 1 0 0 0;
#X connect 2 0 3 0;
#X connect 3 0 9 0;
#X connect 4 0 5 0;
#X connect 5 0 6 0;
#X connect 7 0 10 0;
#X connect 8 0 5 0;
#X connect 10 0 3 0;
#X connect 11 0 2 0;
