#N canvas 209 226 789 535 10;
#X obj 124 196 soundfiler;
#X obj 124 71 pack s \$0;
#X obj 520 350 tabread~ \$0-SAMPLE;
#X obj 510 29 r \$0-SAMPCOUNT;
#X obj 95 245 s \$0-SAMPCOUNT;
#X obj 510 93 / 44100;
#X obj 124 33 r loadfile;
#X obj 89 325 table \$0-SAMPLE 100;
#X obj 191 245 print LOADED;
#X obj 234 32 r playrate;
#X obj 240 121 /;
#X obj 240 145 s \$0-DURRATIO;
#X obj 566 93 r \$0-DURRATIO;
#X obj 537 153 *;
#X obj 310 31 loadbang;
#X msg 310 53 1;
#X obj 566 122 t b f;
#X obj 238 80 t b f;
#X msg 238 100 1;
#X obj 519 290 phasor~;
#X obj 519 262 /;
#X msg 519 236 1;
#X obj 525 189 t b f;
#X obj 443 302 print FREQ;
#X obj 520 320 *~;
#X obj 582 288 r \$0-SAMPCOUNT;
#X msg 124 168 read -resize \$1 \$2-SAMPLE;
#X obj 522 431 outlet~;
#X obj 592 406 dac~;
#X msg 20 34 monster.wav;
#X obj 362 360 osc~ 440;
#X connect 0 0 4 0;
#X connect 0 0 8 0;
#X connect 1 0 26 0;
#X connect 2 0 27 0;
#X connect 2 0 28 0;
#X connect 2 0 28 1;
#X connect 3 0 5 0;
#X connect 5 0 13 0;
#X connect 6 0 1 0;
#X connect 9 0 17 0;
#X connect 10 0 11 0;
#X connect 12 0 16 0;
#X connect 13 0 22 0;
#X connect 14 0 15 0;
#X connect 14 0 29 0;
#X connect 15 0 17 0;
#X connect 16 0 13 0;
#X connect 16 1 13 1;
#X connect 17 0 18 0;
#X connect 17 1 10 1;
#X connect 18 0 10 0;
#X connect 19 0 24 0;
#X connect 20 0 19 0;
#X connect 20 0 23 0;
#X connect 21 0 20 0;
#X connect 22 0 21 0;
#X connect 22 1 20 1;
#X connect 24 0 2 0;
#X connect 25 0 24 1;
#X connect 26 0 0 0;
#X connect 29 0 1 0;
#X connect 30 0 28 0;
#X connect 30 0 28 1;
