#N canvas 38 23 298 347 10;
#N canvas 39 23 1114 851 sub1 0;
#X obj 142 107 tof/menubutton 124 25 empty empty 0 grey90 black grey95
black -1;
#X obj 584 139 prepend add;
#X obj 524 111 split_path;
#X obj 525 88 folder_list;
#X obj 111 115 bng 15 250 50 0 empty empty empty 17 7 0 10 -262144
-1 -1;
#X obj 583 32 getdir;
#X symbolatom 112 259 30 0 0 0 - - -;
#X obj 268 529 colorpanel;
#X obj 113 223 bng 15 250 50 0 empty empty empty 17 7 0 10 -262144
-1 -1;
#X msg 628 117 symbol;
#X msg 671 98 clear;
#X obj 616 15 t b b b;
#X obj 265 573 unpack f f f;
#X obj 269 622 * 255;
#X obj 305 621 * 255;
#X obj 348 622 * 255;
#X obj 428 627 pack f f f;
#X msg 469 519 sendId('display'_'merci') \;;
#X msg 427 649 document.getElementById('display').style.backgroundColor='rgb(\$1_\$2_\$3)'
;
#X msg 382 556 document.getElementById('display').style.backgroundImage="url('../img/\$2')"
;
#X obj 148 161 tof/menubutton 124 25 empty empty 0 grey90 black grey95
black -1;
#X obj 681 538 prepend add;
#X obj 636 518 split_path;
#X obj 637 495 folder_list;
#X obj 117 164 bng 15 250 50 0 empty empty empty 17 7 0 10 -262144
-1 -1;
#X obj 695 439 getdir;
#X msg 740 524 symbol;
#X msg 783 505 clear;
#X obj 649 357 t b b b;
#X obj 130 520 s2l;
#X msg 125 611 sendId('display'_'\$1');
#X text 271 112 img;
#X text 271 170 page;
#X text 145 225 color;
#X obj 383 788 outlet;
#X obj 385 734 prepend;
#X obj 112 292 tof/menubutton 124 25 empty empty 0 grey90 black grey95
black -1;
#X obj 877 404 prepend add;
#X obj 881 496 list split 1;
#X msg 452 719 /all;
#X obj 450 696 loadbang;
#X obj 867 381 cyclone/tosymbol;
#X obj 873 337 t b b;
#X msg 987 404 clear;
#X text 117 273 user;
#X obj 386 761 list trim;
#X obj 910 554 s2l;
#X msg 884 624 /user r\$2;
#X msg 762 361 /all \, /user 0 \, /user 1 \, /user 2 \, /user 3;
#X obj 132 560 l2s #;
#X obj 473 780 print;
#X msg 885 92 /all page('') \, /user r2 page('ii');
#X obj 811 77 t b b;
#X obj 811 47 delay 1000;
#X msg 756 24 stop;
#X obj 785 170 t b b;
#X obj 115 356 tof/menubutton 124 25 empty empty 0 grey90 black grey95
black -1;
#X obj 924 195 sel 0 1 2 3 4 5 6 7;
#X obj 918 176 list split 1;
#X msg 864 13 /all page('deambule');
#X obj 791 141 delay 180000;
#X obj 787 201 delay 180000;
#N canvas 145 408 928 777 scenar 0;
#X obj 79 5 inlet;
#X msg 506 138 /all page('') \, /user r2 page('ii');
#X obj 241 161 t b b;
#X msg 83 143 stop;
#X obj 217 251 t b b;
#X obj 68 34 list split 1;
#X obj 221 225 delay 180000;
#X obj 211 290 delay 180000;
#X obj 241 131 delay 1;
#X obj 204 353 delay 180000;
#X obj 212 318 t b b;
#X text 173 224 3mn;
#X text 157 296 6mn;
#X text 153 353 9mn;
#X obj 195 419 delay 180000;
#X obj 203 384 t b b;
#X obj 184 480 delay 180000;
#X obj 192 445 t b b;
#X text 145 414 12mn;
#X text 123 478 15mn;
#X obj 178 543 delay 180000;
#X obj 177 505 t b b;
#X text 128 545 18mn;
#X obj 168 599 delay 180000;
#X obj 176 564 t b b;
#X text 100 601 21 mn;
#X obj 403 682 outlet;
#X msg 420 428 /all page('cooperer');
#X msg 338 553 /all page('espace');
#X msg 231 654 /all page('merci');
#X msg 335 605 /all page('sol');
#X msg 486 636 /all page('welcome');
#X obj 76 87 sel 0 1 2 3 4 5 6 7 8;
#X msg 348 199 /all page('espace');
#X msg 322 268 /user r0 page('shacker') \, /user r1 page('orientation')
\, /user r2 page('shacker') \, /user r3 page('orientation');
#X msg 320 352 /user r1 page('shacker') \, /user r0 page('orientation')
\, /user r3 page('shacker') \, /user r2 page('orientation');
#X msg 334 508 /user r1 page('rapproche') \, /user r0 page('loin')
\, /user r3 page('bisous') \, /user r2 page('inconnu');
#X obj 72 63 t b a b;
#X floatatom 301 66 5 0 0 0 - - -;
#X connect 0 0 5 0;
#X connect 2 0 6 0;
#X connect 2 1 33 0;
#X connect 3 0 6 0;
#X connect 3 0 8 0;
#X connect 3 0 7 0;
#X connect 3 0 9 0;
#X connect 3 0 14 0;
#X connect 3 0 16 0;
#X connect 3 0 20 0;
#X connect 3 0 23 0;
#X connect 4 0 7 0;
#X connect 4 1 34 0;
#X connect 5 0 37 0;
#X connect 6 0 4 0;
#X connect 7 0 10 0;
#X connect 8 0 2 0;
#X connect 9 0 15 0;
#X connect 10 0 9 0;
#X connect 10 1 35 0;
#X connect 14 0 17 0;
#X connect 15 0 14 0;
#X connect 15 1 27 0;
#X connect 16 0 21 0;
#X connect 17 0 16 0;
#X connect 17 1 36 0;
#X connect 20 0 24 0;
#X connect 21 0 20 0;
#X connect 21 1 28 0;
#X connect 23 0 29 0;
#X connect 24 0 23 0;
#X connect 24 1 30 0;
#X connect 27 0 26 0;
#X connect 28 0 26 0;
#X connect 29 0 26 0;
#X connect 30 0 26 0;
#X connect 31 0 26 0;
#X connect 32 1 2 0;
#X connect 32 2 4 0;
#X connect 32 3 10 0;
#X connect 32 4 15 0;
#X connect 32 5 17 0;
#X connect 32 6 21 0;
#X connect 32 7 24 0;
#X connect 32 8 29 0;
#X connect 33 0 26 0;
#X connect 34 0 26 0;
#X connect 35 0 26 0;
#X connect 36 0 26 0;
#X connect 37 0 3 0;
#X connect 37 1 32 0;
#X connect 37 2 3 0;
#X connect 38 0 6 1;
#X connect 38 0 7 1;
#X connect 38 0 9 1;
#X connect 38 0 14 1;
#X connect 38 0 16 1;
#X connect 38 0 20 1;
#X connect 38 0 23 1;
#X restore 924 227 pd scenar;
#X obj 870 528 print;
#X obj 920 582 route symbol;
#X msg 867 43 clear \, add stop \, add deambule \, add rejoins1 \,
add rejoins2 \, add coopere \, add 12mn \, add deambule2 \, add sol
\, add merci;
#X obj 1024 10 loadbang;
#X text 131 336 scenario;
#X msg 222 696 o.disconnect();
#X obj 866 800 shell;
#X obj 866 752 getdir;
#X obj 864 827 print;
#X obj 1031 730 mrpeach/udpsend;
#X obj 1034 764 tgl 15 0 empty empty empty 17 7 0 10 -262144 -1 -1
1 1;
#X obj 1013 663 mrpeach/packOSC;
#X msg 988 701 disconnect;
#X obj 905 680 loadbang;
#X obj 922 638 t b b;
#X obj 250 364 bng 15 250 50 0 empty empty empty 17 7 0 10 -262144
-1 -1;
#X msg 865 775 \$1/PD/./node \$1/PD/testRCO.js;
#X obj 866 729 bng 15 250 50 0 empty empty empty 17 7 0 10 -262144
-1 -1;
#X msg 71 749 wm withdraw .pdwindow;
#X obj 80 788 sys_gui;
#X obj 70 678 loadbang;
#X obj 958 278 print;
#X symbolatom 113 239 30 0 0 0 - - -;
#X msg 372 188 speach('\$1');
#X obj 251 8 bng 15 250 50 0 empty empty empty 17 7 0 10 -262144 -1
-1;
#X msg 284 476 nVibrate(200);
#X obj 446 267 list split 1;
#X msg 392 510 page('\$1');
#N canvas 184 38 1050 704 deplacements 0;
#X obj 485 173 list split 1;
#X obj 484 221 prepend add;
#X obj 485 292 pdcontainer/h_map pas;
#X obj 474 25 t b b;
#X msg 583 166 clear;
#X obj 472 4 bng 15 250 50 0 empty empty empty 17 7 0 10 -262144 -1
-1;
#X msg 541 266 print;
#X obj 492 331 list split 1;
#X obj 498 384 delay 1;
#X obj 498 440 any;
#X obj 473 358 t b a;
#X obj 660 313 prepend get;
#X obj 735 367 sel 8;
#X obj 664 333 spigot 1;
#X obj 723 275 counter 1 8;
#X msg 644 215 1;
#X obj 737 456 sel 0 1 2 3;
#X msg 686 425 0;
#X obj 752 298 t f f;
#X obj 531 360 / 1;
#X msg 778 491 2;
#X msg 811 490 4;
#X msg 679 217 1;
#X obj 643 124 bng 15 250 50 0 empty empty empty 17 7 0 10 -262144
-1 -1;
#X obj 739 403 counter 3;
#X msg 371 170 stop;
#X obj 301 57 inlet;
#X obj 355 60 inlet;
#X obj 499 480 outlet;
#X obj 536 23 loadbang;
#X msg 607 233 jam 1;
#X obj 417 63 inlet;
#X msg 751 491 1;
#X msg 477 60 1 5pasAvant 10000 \, 2 quartTour 4000 \, 3 3pasDroite
6000 \, 4 3sauts 6000 \, 5 demiTour 4000 \, 6 7reculons 14000 \, 7
tour 4000 \, 8 zigzag 24000;
#X obj 582 451 print;
#X obj 673 515 delay 8000;
#X obj 675 489 bng 15 250 50 0 empty empty empty 17 7 0 10 -262144
-1 -1;
#X msg 667 555 symbol 00-patience;
#X obj 646 170 t b b b b;
#X msg 734 203 jam 1;
#X connect 0 0 1 0;
#X connect 0 1 2 1;
#X connect 1 0 2 0;
#X connect 2 0 7 0;
#X connect 3 0 33 0;
#X connect 3 1 4 0;
#X connect 4 0 2 0;
#X connect 5 0 3 0;
#X connect 6 0 2 0;
#X connect 7 0 10 0;
#X connect 7 1 19 0;
#X connect 8 0 14 0;
#X connect 9 0 28 0;
#X connect 10 0 8 0;
#X connect 10 1 9 0;
#X connect 11 0 13 0;
#X connect 12 0 24 0;
#X connect 13 0 2 0;
#X connect 14 0 18 0;
#X connect 15 0 13 1;
#X connect 16 0 17 0;
#X connect 16 0 36 0;
#X connect 16 1 32 0;
#X connect 16 2 20 0;
#X connect 16 3 21 0;
#X connect 17 0 13 1;
#X connect 18 0 12 0;
#X connect 18 1 11 0;
#X connect 19 0 8 1;
#X connect 19 0 34 0;
#X connect 20 0 19 1;
#X connect 21 0 19 1;
#X connect 22 0 19 1;
#X connect 23 0 38 0;
#X connect 24 0 16 0;
#X connect 25 0 8 0;
#X connect 25 0 35 0;
#X connect 26 0 38 0;
#X connect 27 0 25 0;
#X connect 29 0 3 0;
#X connect 30 0 14 0;
#X connect 31 0 14 0;
#X connect 32 0 19 1;
#X connect 33 0 0 0;
#X connect 35 0 37 0;
#X connect 36 0 35 0;
#X connect 37 0 9 0;
#X connect 38 0 30 0;
#X connect 38 1 15 0;
#X connect 38 2 22 0;
#X connect 38 3 39 0;
#X connect 39 0 24 0;
#X restore 465 368 pd deplacements;
#X obj 116 194 bng 15 250 50 0 empty empty empty 17 7 0 10 -262144
-1 -1;
#X obj 408 294 sel 03-deplacement;
#X msg 576 58 symbol \$1/img/*;
#X msg 331 397 symbol quartTour;
#X msg 954 687 connect localhost 9012;
#X msg 688 465 symbol \$1/page/*;
#X connect 0 0 19 0;
#X connect 1 0 0 0;
#X connect 2 1 1 0;
#X connect 3 0 2 0;
#X connect 4 0 11 0;
#X connect 5 0 94 0;
#X connect 6 0 30 0;
#X connect 7 0 12 0;
#X connect 8 0 7 0;
#X connect 9 0 1 0;
#X connect 10 0 0 0;
#X connect 11 0 5 0;
#X connect 11 1 9 0;
#X connect 11 2 10 0;
#X connect 12 0 13 0;
#X connect 12 1 14 0;
#X connect 12 2 15 0;
#X connect 13 0 16 0;
#X connect 14 0 16 1;
#X connect 15 0 16 2;
#X connect 16 0 18 0;
#X connect 17 0 35 0;
#X connect 18 0 35 0;
#X connect 19 0 35 0;
#X connect 20 0 89 0;
#X connect 21 0 20 0;
#X connect 22 1 21 0;
#X connect 23 0 22 0;
#X connect 24 0 28 0;
#X connect 25 0 97 0;
#X connect 26 0 21 0;
#X connect 27 0 20 0;
#X connect 28 0 25 0;
#X connect 28 1 26 0;
#X connect 28 2 27 0;
#X connect 29 0 49 0;
#X connect 30 0 35 0;
#X connect 35 0 45 0;
#X connect 36 0 38 0;
#X connect 37 0 36 0;
#X connect 38 1 46 0;
#X connect 39 0 35 1;
#X connect 40 0 39 0;
#X connect 40 0 28 0;
#X connect 40 0 11 0;
#X connect 40 0 42 0;
#X connect 41 0 37 0;
#X connect 42 0 48 0;
#X connect 42 1 43 0;
#X connect 43 0 36 0;
#X connect 45 0 34 0;
#X connect 45 0 74 0;
#X connect 46 0 64 0;
#X connect 47 0 35 1;
#X connect 48 0 41 0;
#X connect 49 0 30 0;
#X connect 52 0 60 0;
#X connect 52 1 59 0;
#X connect 53 0 52 0;
#X connect 54 0 53 0;
#X connect 54 0 60 0;
#X connect 56 0 62 0;
#X connect 57 0 54 0;
#X connect 57 1 53 0;
#X connect 57 2 60 0;
#X connect 58 0 57 0;
#X connect 60 0 55 0;
#X connect 62 0 45 0;
#X connect 62 0 84 0;
#X connect 64 0 39 0;
#X connect 64 1 47 0;
#X connect 65 0 56 0;
#X connect 66 0 65 0;
#X connect 68 0 35 0;
#X connect 69 0 71 0;
#X connect 69 1 71 0;
#X connect 70 0 79 0;
#X connect 72 0 73 0;
#X connect 74 0 72 0;
#X connect 75 0 72 0;
#X connect 76 0 77 0;
#X connect 77 0 70 0;
#X connect 77 1 96 0;
#X connect 78 0 77 0;
#X connect 79 0 69 0;
#X connect 80 0 70 0;
#X connect 81 0 82 0;
#X connect 85 0 86 0;
#X connect 86 0 35 0;
#X connect 87 0 85 0;
#X connect 88 0 35 0;
#X connect 89 1 93 0;
#X connect 90 0 35 0;
#X connect 91 0 90 0;
#X connect 92 0 91 2;
#X connect 93 0 91 0;
#X connect 93 1 90 0;
#X connect 93 1 91 1;
#X connect 94 0 3 0;
#X connect 95 0 90 0;
#X connect 96 0 72 0;
#X connect 97 0 23 0;
#X coords 0 -1 1 1 200 300 2 100 100;
#X restore 42 5 pd sub1;
