#N canvas 678 23 777 803 10;
#X obj 144 156 mrpeach/unpackOSC;
#X obj 135 108 mrpeach/udpreceive 57120;
#X obj 184 215 list split 1;
#X obj 178 243 s2l;
#X obj 172 261 list trim;
#X obj 11 340 route click release;
#X obj 349 364 unpack;
#X obj 352 395 t f f;
#X obj 356 428 -;
#X obj 362 510 f;
#X obj 330 508 +;
#X msg 248 413 0;
#X obj 353 475 spigot;
#X obj 343 451 t b f;
#X msg 397 466 1;
#X obj 329 611 +;
#X obj 333 564 t b a;
#X obj 189 378 == 0;
#X obj 146 449 route click release;
#X obj 254 479 unpack;
#X obj 270 575 t a b;
#X msg 298 604 0;
#X obj 444 393 t f f;
#X obj 448 426 -;
#X obj 454 508 f;
#X obj 422 506 +;
#X obj 445 473 spigot;
#X obj 435 449 t b f;
#X msg 489 464 1;
#X obj 421 609 +;
#X obj 425 562 t b a;
#X obj 366 578 t a b;
#X msg 394 607 0;
#X obj 409 648 pack;
#X obj 147 416 spigot 1;
#X obj 369 303 sel 0;
#X msg 371 329 0;
#X obj 331 539 * 0.05;
#X obj 423 537 * 0.05;
#X obj 37 37 print;
#X obj 153 179 route /lighttst;
#X obj 105 436 s;
#X obj 102 308 route p1 spotN;
#X msg 131 367 symbol spot.\$1;
#X msg 61 371 \$2;
#X obj 60 406 - 1;
#X obj 64 441 abs;
#X connect 0 0 40 0;
#X connect 1 0 0 0;
#X connect 2 1 3 0;
#X connect 3 0 4 0;
#X connect 4 0 39 0;
#X connect 4 0 42 0;
#X connect 5 2 44 0;
#X connect 6 0 7 0;
#X connect 6 1 22 0;
#X connect 7 0 8 1;
#X connect 7 1 8 0;
#X connect 8 0 13 0;
#X connect 9 0 10 1;
#X connect 10 0 9 0;
#X connect 10 0 37 0;
#X connect 11 0 12 1;
#X connect 11 0 26 1;
#X connect 12 0 10 0;
#X connect 13 0 14 0;
#X connect 13 1 12 0;
#X connect 14 0 12 1;
#X connect 15 0 33 0;
#X connect 16 0 15 0;
#X connect 16 1 15 1;
#X connect 17 0 34 1;
#X connect 18 2 19 0;
#X connect 19 0 20 0;
#X connect 19 1 31 0;
#X connect 20 0 15 0;
#X connect 20 1 21 0;
#X connect 21 0 15 1;
#X connect 22 0 23 1;
#X connect 22 1 23 0;
#X connect 23 0 27 0;
#X connect 24 0 25 1;
#X connect 25 0 24 0;
#X connect 25 0 38 0;
#X connect 26 0 25 0;
#X connect 27 0 28 0;
#X connect 27 1 26 0;
#X connect 28 0 26 1;
#X connect 29 0 33 1;
#X connect 30 0 29 0;
#X connect 30 1 29 1;
#X connect 31 0 29 0;
#X connect 31 1 32 0;
#X connect 32 0 29 1;
#X connect 34 0 18 0;
#X connect 35 0 36 0;
#X connect 36 0 10 1;
#X connect 36 0 25 1;
#X connect 37 0 16 0;
#X connect 38 0 30 0;
#X connect 40 0 2 0;
#X connect 42 0 5 0;
#X connect 42 1 43 0;
#X connect 43 0 41 1;
#X connect 44 0 45 0;
#X connect 45 0 46 0;
#X connect 46 0 41 0;
