#N canvas 678 23 777 803 10;
#X obj 144 156 mrpeach/unpackOSC;
#X obj 135 108 mrpeach/udpreceive 57120;
#X obj 133 209 print;
#X obj 269 213 mrpeach/packOSC;
#X obj 265 240 mrpeach/udpsend 57120;
#X msg 275 183 connect localhost 4445;
#X connect 0 0 2 0;
#X connect 1 0 0 0;
#X connect 3 0 4 0;
#X connect 5 0 3 0;
